# xmcd CD database file
#
# Track frame offsets:
#	150
#	12718
#	27870
#	53228
#	66880
#	95814
#	107350
#	126788
#	139998
#	152127
#	161362
#	169941
#	179249
#	193958
#
# Disc length: 2752 seconds
#
# Revision: 0
# Processed by: cddbd v1.5.2PL0 Copyright (c) Steve Scherf et al.
# Submitted via: CDex 1.79
#
DISCID=cd0abe0e
DTITLE=Albert Florian Mihai  - Accordion Quartet
DYEAR=1900
DGENRE=Jazz
TTITLE0=Minor Swing
TTITLE1=All of me
TTITLE2=Variazzone Russe
TTITLE3=La Craiova
TTITLE4=Le foglie
TTITLE5=Suite Folklore
TTITLE6=Liber Tango
TTITLE7=La Chzarda di Monti
TTITLE8=Black Orpheus
TTITLE9=Perfidia
TTITLE10=Girl From Ipanema
TTITLE11=Sir ba Olternesca
TTITLE12=Daina Oltului
TTITLE13=Bonus track- Ioane ioane
EXTD=
EXTT0=
EXTT1=
EXTT2=
EXTT3=
EXTT4=
EXTT5=
EXTT6=
EXTT7=
EXTT8=
EXTT9=
EXTT10=
EXTT11=
EXTT12=
EXTT13=
PLAYORDER=
